
      <svg data-logo="logo" xmlns="http://www.w3.org/2000/svg" viewBox="0 0 304 43">
        <g id="logogram" transform="translate(0, 1) rotate(0) "><path d="M0.452637 20.81C0.452637 9.76427 9.40694 0.809967 20.4526 0.809967H46.7026C57.7484 0.809967 66.7026 9.76427 66.7026 20.81V40.81H20.4526C9.40694 40.81 0.452637 31.8557 0.452637 20.81Z" fill="#4845D2"/><path d="M46.7026 8.30997H20.4526C13.5491 8.30997 7.95264 13.9064 7.95264 20.81C7.95264 27.7135 13.5491 33.31 20.4526 33.31H46.7026C53.6062 33.31 59.2026 27.7135 59.2026 20.81C59.2026 13.9064 53.6062 8.30997 46.7026 8.30997Z" fill="#A5B4FC"/><path d="M20.4526 27.06C23.9044 27.06 26.7026 24.2617 26.7026 20.81C26.7026 17.3582 23.9044 14.56 20.4526 14.56C17.0009 14.56 14.2026 17.3582 14.2026 20.81C14.2026 24.2617 17.0009 27.06 20.4526 27.06Z" fill="black"/><path d="M17.9526 19.56C18.643 19.56 19.2026 19.0003 19.2026 18.31C19.2026 17.6196 18.643 17.06 17.9526 17.06C17.2623 17.06 16.7026 17.6196 16.7026 18.31C16.7026 19.0003 17.2623 19.56 17.9526 19.56Z" fill="white"/><path d="M47.9526 27.06C51.4044 27.06 54.2026 24.2617 54.2026 20.81C54.2026 17.3582 51.4044 14.56 47.9526 14.56C44.5009 14.56 41.7026 17.3582 41.7026 20.81C41.7026 24.2617 44.5009 27.06 47.9526 27.06Z" fill="black"/><path d="M45.4526 19.56C46.143 19.56 46.7026 19.0003 46.7026 18.31C46.7026 17.6196 46.143 17.06 45.4526 17.06C44.7623 17.06 44.2026 17.6196 44.2026 18.31C44.2026 19.0003 44.7623 19.56 45.4526 19.56Z" fill="white"/></g>
        <g id="logotype" transform="translate(73, 2)"><path fill="#2f13be" d="M7.75 32L7.75 31.48L9.85 30.95L9.85 8.55L7.75 8.02L7.75 7.50L17.73 7.50L17.73 8.02L15.63 8.55L15.63 31.13L23.15 31.13Q23.15 28.92 24.27 27.03L24.27 27.03Q24.76 26.23 25.43 25.70L25.43 25.70L26.48 25.70L26.48 32L7.75 32ZM38.20 32.52Q33.72 32.52 31.24 30.06Q28.75 27.59 28.75 23.25L28.75 23.25Q28.75 20.41 29.84 18.31Q30.92 16.21 32.86 15.09Q34.80 13.97 37.33 13.97L37.33 13.97Q39.84 13.97 41.75 14.92Q43.66 15.86 44.69 17.46Q45.73 19.05 45.73 20.98L45.73 20.98Q45.73 21.85 45.55 22.48L45.55 22.48L45.38 23.07Q43.87 23.39 42.12 23.60L42.12 23.60Q38.45 24.13 34.70 24.13L34.70 24.13Q34.70 28.18 35.82 29.92Q36.94 31.65 38.90 31.65L38.90 31.65Q40.27 31.65 41.44 31.00Q42.61 30.36 43.29 29.29Q43.98 28.22 43.98 27.10L43.98 27.10L44.85 27.10Q44.85 28.50 44.01 29.76Q43.17 31.02 41.67 31.77Q40.16 32.52 38.20 32.52L38.20 32.52ZM34.70 23.25Q36.94 23.25 38.34 23.07L38.34 23.07Q38.94 23.04 39.60 22.90L39.60 22.90Q39.64 22.73 39.78 22.13L39.78 22.13Q39.95 21.25 39.95 20.27L39.95 20.27Q39.95 17.37 39.18 16.02Q38.41 14.67 37.33 14.67L37.33 14.67Q34.70 14.67 34.70 23.25L34.70 23.25ZM54.83 32.52Q51.71 32.52 50.03 31.20Q48.35 29.86 48.35 27.80L48.35 27.80Q48.35 26.43 48.95 25.11L48.95 25.11Q49.19 24.48 49.58 23.95L49.58 23.95Q51.01 23.60 52.69 23.32L52.69 23.32Q56.47 22.69 59.38 22.55L59.38 22.55L59.38 21.50Q59.38 17.61 58.43 16.14Q57.48 14.67 55.53 14.67L55.53 14.67Q54.79 14.67 54.27 14.85L54.27 14.85L53.78 15.02L53.78 20.27L53.32 20.38Q52.76 20.45 52.38 20.45L52.38 20.45Q51.19 20.45 50.47 19.73Q49.75 19.02 49.75 17.82L49.75 17.82Q49.75 16.21 51.38 15.09Q53.01 13.97 56.23 13.97L56.23 13.97Q58.95 13.97 60.93 14.94Q62.91 15.90 63.94 17.60Q64.97 19.29 64.97 21.50L64.97 21.50L64.97 30.95L67.08 31.48L67.08 32L63.93 32Q61.83 32 60.67 30.70L60.67 30.70Q60.18 30.18 59.90 29.38L59.90 29.38Q59.41 30.25 58.75 30.95L58.75 30.95Q57.17 32.52 54.83 32.52L54.83 32.52ZM56.23 31.30Q57.52 31.30 58.57 29.90L58.57 29.90Q58.95 29.38 59.38 28.50L59.38 28.50L59.38 23.42Q57.77 23.42 56.30 23.60L56.30 23.60Q55.21 23.74 54.83 23.77L54.83 23.77Q54.65 24.16 54.48 24.82L54.48 24.82Q54.13 26.16 54.13 27.45L54.13 27.45Q54.13 29.41 54.72 30.36Q55.32 31.30 56.23 31.30L56.23 31.30ZM69.18 32L69.18 31.48L71.28 30.95L71.28 15.55L69.18 15.02L69.18 14.50L72.33 14.50Q74.39 14.50 75.58 15.83L75.58 15.83Q76.04 16.35 76.35 17.13L76.35 17.13Q76.88 16.35 77.65 15.72L77.65 15.72Q79.40 14.32 81.57 14.32L81.57 14.32Q83.42 14.32 84.35 15.18Q85.28 16.04 85.28 17.65L85.28 17.65Q85.28 18.84 84.56 19.56Q83.84 20.27 82.65 20.27L82.65 20.27Q82.16 20.27 81.67 20.20L81.67 20.20L81.25 20.10L81.25 15.20Q79.47 15.20 78.00 16.60L78.00 16.60Q77.30 17.30 76.88 18L76.88 18L76.88 30.95L78.98 31.48L78.98 32L69.18 32ZM86.85 32L86.85 31.48L88.95 30.95L88.95 15.55L86.85 15.02L86.85 14.50L90 14.50Q92.06 14.50 93.26 15.83L93.26 15.83Q93.71 16.35 94.03 17.13L94.03 17.13Q94.52 16.21 95.18 15.55L95.18 15.55Q96.76 13.97 99.10 13.97L99.10 13.97Q101.06 13.97 102.62 14.80Q104.18 15.62 105.05 16.95Q105.93 18.28 105.93 19.75L105.93 19.75L105.93 30.95L108.03 31.48L108.03 32L103.48 32Q100.33 32 100.33 28.85L100.33 28.85L100.33 19.75Q100.33 17.54 99.54 16.37Q98.75 15.20 97.70 15.20L97.70 15.20Q96.37 15.20 95.32 16.60L95.32 16.60Q94.87 17.20 94.55 18L94.55 18L94.55 30.95L96.65 31.48L96.65 32L86.85 32ZM119.05 32.52Q116.57 32.52 114.40 31.41L114.40 31.41Q113.42 30.91 112.75 30.25L112.75 30.25Q112.26 31.05 111.53 31.68L111.53 31.68Q110.90 32.14 110.83 32.17L110.83 32.17L109.95 32.17L109.95 25.52L111.35 25.52Q111.88 27.24 112.82 28.61L112.82 28.61Q114.96 31.65 118.35 31.65L118.35 31.65Q120.35 31.65 121.54 30.46Q122.73 29.27 122.73 27.27L122.73 27.27Q122.73 26.12 122.04 25.21Q121.36 24.30 120.35 23.60Q119.33 22.90 117.51 21.85L117.51 21.85Q115.20 20.55 113.77 19.50Q112.33 18.45 111.32 16.86Q110.30 15.27 110.30 13.10L110.30 13.10Q110.30 11.38 111.26 10.00Q112.23 8.62 114.15 7.80Q116.08 6.97 118.88 6.97L118.88 6.97Q120.91 6.97 122.94 8.13L122.94 8.13Q123.71 8.55 124.48 9.25L124.48 9.25Q125.07 8.34 125.70 7.81L125.70 7.81Q126.33 7.36 126.40 7.32L126.40 7.32L127.28 7.32L127.28 13.97L125.88 13.97Q125.42 12.29 124.51 10.93L124.51 10.93Q123.67 9.60 122.43 8.72Q121.19 7.85 119.58 7.85L119.58 7.85Q118.21 7.85 117.23 8.93Q116.25 10.02 116.25 11.70L116.25 11.70Q116.25 12.99 117.00 14.03Q117.76 15.06 118.86 15.83Q119.96 16.60 121.85 17.68L121.85 17.68Q124.06 18.95 125.42 19.92Q126.79 20.91 127.73 22.36Q128.68 23.81 128.68 25.70L128.68 25.70Q128.68 27.59 127.59 29.15Q126.51 30.70 124.34 31.61Q122.17 32.52 119.05 32.52L119.05 32.52ZM130.60 39L130.60 38.48L132.70 37.95L132.70 15.55L130.60 15.02L130.60 14.50L133.75 14.50Q135.81 14.50 137.01 15.83L137.01 15.83Q137.46 16.35 137.78 17.13L137.78 17.13Q138.23 16.21 138.93 15.55L138.93 15.55Q140.51 13.97 142.85 13.97L142.85 13.97Q144.92 13.97 146.53 15.04Q148.14 16.11 149.08 18.19Q150.03 20.27 150.03 23.25L150.03 23.25Q150.03 27.73 147.94 30.13Q145.86 32.52 142.33 32.52L142.33 32.52Q140.65 32.52 139.39 31.82L139.39 31.82Q138.86 31.58 138.30 31.13L138.30 31.13L138.30 37.95L140.40 38.48L140.40 39L130.60 39ZM140.93 31.48Q142.43 31.48 143.25 29.73Q144.08 27.98 144.08 23.25L144.08 23.25Q144.08 18.73 143.32 16.97Q142.57 15.20 141.45 15.20L141.45 15.20Q140.12 15.20 139.07 16.60L139.07 16.60Q138.62 17.20 138.30 18L138.30 18L138.30 30.07Q138.79 30.57 139.07 30.77L139.07 30.77Q140.02 31.48 140.93 31.48L140.93 31.48ZM152.83 32L152.83 31.48L154.93 30.95L154.93 8.55L152.83 8.02L152.83 7.50L157.38 7.50Q160.53 7.50 160.53 10.65L160.53 10.65L160.53 16.25Q161.05 15.55 161.61 15.13L161.61 15.13Q163.12 13.97 165.08 13.97L165.08 13.97Q167.04 13.97 168.59 14.80Q170.15 15.62 171.03 16.95Q171.90 18.28 171.90 19.75L171.90 19.75L171.90 30.95L174 31.48L174 32L169.45 32Q166.30 32 166.30 28.85L166.30 28.85L166.30 19.75Q166.30 17.54 165.51 16.37Q164.73 15.20 163.68 15.20L163.68 15.20Q162.35 15.20 161.30 16.60L161.30 16.60Q160.84 17.20 160.53 18L160.53 18L160.53 30.95L162.63 31.48L162.63 32L152.83 32ZM185.55 32.52Q181.07 32.52 178.59 30.06Q176.10 27.59 176.10 23.25L176.10 23.25Q176.10 20.41 177.19 18.31Q178.27 16.21 180.21 15.09Q182.16 13.97 184.68 13.97L184.68 13.97Q187.20 13.97 189.10 14.92Q191.01 15.86 192.04 17.46Q193.08 19.05 193.08 20.98L193.08 20.98Q193.08 21.85 192.90 22.48L192.90 22.48L192.73 23.07Q191.22 23.39 189.47 23.60L189.47 23.60Q185.80 24.13 182.05 24.13L182.05 24.13Q182.05 28.18 183.17 29.92Q184.29 31.65 186.25 31.65L186.25 31.65Q187.62 31.65 188.79 31.00Q189.96 30.36 190.64 29.29Q191.33 28.22 191.33 27.10L191.33 27.10L192.20 27.10Q192.20 28.50 191.36 29.76Q190.52 31.02 189.02 31.77Q187.51 32.52 185.55 32.52L185.55 32.52ZM182.05 23.25Q184.29 23.25 185.69 23.07L185.69 23.07Q186.29 23.04 186.95 22.90L186.95 22.90Q186.99 22.73 187.13 22.13L187.13 22.13Q187.30 21.25 187.30 20.27L187.30 20.27Q187.30 17.37 186.53 16.02Q185.76 14.67 184.68 14.67L184.68 14.67Q182.05 14.67 182.05 23.25L182.05 23.25ZM195.70 32L195.70 31.48L197.80 30.95L197.80 15.55L195.70 15.02L195.70 14.50L198.85 14.50Q200.92 14.50 202.11 15.83L202.11 15.83Q202.56 16.35 202.88 17.13L202.88 17.13Q203.40 16.35 204.17 15.72L204.17 15.72Q205.92 14.32 208.09 14.32L208.09 14.32Q209.95 14.32 210.87 15.18Q211.80 16.04 211.80 17.65L211.80 17.65Q211.80 18.84 211.08 19.56Q210.37 20.27 209.18 20.27L209.18 20.27Q208.69 20.27 208.20 20.20L208.20 20.20L207.78 20.10L207.78 15.20Q205.99 15.20 204.52 16.60L204.52 16.60Q203.82 17.30 203.40 18L203.40 18L203.40 30.95L205.50 31.48L205.50 32L195.70 32ZM222.83 32.52Q218.35 32.52 215.86 30.06Q213.38 27.59 213.38 23.25L213.38 23.25Q213.38 20.41 214.46 18.31Q215.55 16.21 217.49 15.09Q219.43 13.97 221.95 13.97L221.95 13.97Q224.47 13.97 226.38 14.92Q228.29 15.86 229.32 17.46Q230.35 19.05 230.35 20.98L230.35 20.98Q230.35 21.85 230.18 22.48L230.18 22.48L230.00 23.07Q228.50 23.39 226.75 23.60L226.75 23.60Q223.07 24.13 219.33 24.13L219.33 24.13Q219.33 28.18 220.45 29.92Q221.57 31.65 223.53 31.65L223.53 31.65Q224.89 31.65 226.06 31.00Q227.24 30.36 227.92 29.29Q228.60 28.22 228.60 27.10L228.60 27.10L229.48 27.10Q229.48 28.50 228.64 29.76Q227.80 31.02 226.29 31.77Q224.79 32.52 222.83 32.52L222.83 32.52ZM219.33 23.25Q221.57 23.25 222.97 23.07L222.97 23.07Q223.56 23.04 224.23 22.90L224.23 22.90Q224.26 22.73 224.40 22.13L224.40 22.13Q224.58 21.25 224.58 20.27L224.58 20.27Q224.58 17.37 223.81 16.02Q223.04 14.67 221.95 14.67L221.95 14.67Q219.33 14.67 219.33 23.25L219.33 23.25Z"/></g>
        
      </svg>
    